<svg xmlns="http://www.w3.org/2000/svg" viewBox="0 0 64 64" fill="none" role="img" aria-label="Scaling Human">
  <!-- Human node-figure · >> · denser AI net (humans + machines) -->
  <g stroke="currentColor" stroke-width="2" stroke-linecap="round">
    <line x1="14" y1="14" x2="14" y2="28"/>
    <line x1="14" y1="28" x2="8" y2="40"/>
    <line x1="14" y1="28" x2="20" y2="40"/>
    <line x1="14" y1="22" x2="6" y2="24"/>
    <line x1="14" y1="22" x2="22" y2="24"/>
  </g>
  <g fill="currentColor">
    <circle cx="14" cy="12" r="3.5"/>
    <circle cx="14" cy="22" r="2.4"/>
    <circle cx="14" cy="28" r="2.4"/>
    <circle cx="6" cy="24" r="2"/>
    <circle cx="22" cy="24" r="2"/>
    <circle cx="8" cy="40" r="2.2"/>
    <circle cx="20" cy="40" r="2.2"/>
  </g>
  <g fill="none" stroke="currentColor" stroke-width="2.6" stroke-linecap="round" stroke-linejoin="round">
    <path d="M28 24l5 7-5 7"/>
    <path d="M34 24l5 7-5 7"/>
  </g>
  <!-- Machine AI net -->
  <g stroke="currentColor" stroke-width="2" stroke-linecap="round">
    <line x1="48" y1="16" x2="42" y2="28"/>
    <line x1="48" y1="16" x2="56" y2="28"/>
    <line x1="42" y1="28" x2="56" y2="28"/>
    <line x1="42" y1="28" x2="44" y2="42"/>
    <line x1="56" y1="28" x2="52" y2="42"/>
    <line x1="48" y1="16" x2="48" y2="42"/>
  </g>
  <g fill="currentColor">
    <circle cx="48" cy="16" r="3"/>
    <circle cx="42" cy="28" r="2.6"/>
    <circle cx="56" cy="28" r="2.6"/>
    <circle cx="44" cy="42" r="2.4"/>
    <circle cx="52" cy="42" r="2.4"/>
    <circle cx="48" cy="42" r="2.4"/>
  </g>
</svg>
