<svg xmlns="http://www.w3.org/2000/svg" viewBox="0 0 64 64" fill="none" role="img" aria-label="Scaling Human alternate monogram">
  <!-- Abstract SH: S-curve + H upright with chevron tip -->
  <g fill="currentColor">
    <!-- S spine (human-machine curve) -->
    <path d="M38 14c-9 0-14 4.5-14 10.5 0 5 3.5 7.5 10 9.5 5.2 1.6 7.5 3.2 7.5 6.5 0 3.8-3.8 6.5-9.5 6.5-4.2 0-7.8-1.4-10.2-3.6l-3.2 4.2C22.2 51.5 27.2 54 34 54c10.5 0 16.5-5.5 16.5-13.5 0-6.2-3.8-9.5-11.2-11.8-5-1.5-7.3-3-7.3-5.8 0-3.2 3-5.2 7.8-5.2 3.5 0 6.5 1.1 8.6 2.9l3-4.3C48.5 15.2 43.8 14 38 14z"/>
    <!-- Rising bar / H stem with double chevron head -->
    <rect x="48" y="22" width="5" height="22" rx="1.2"/>
    <path d="M44.5 20 L50.5 14 L56.5 20" fill="none" stroke="currentColor" stroke-width="3.2" stroke-linecap="round" stroke-linejoin="round"/>
    <path d="M44.5 15.5 L50.5 9.5 L56.5 15.5" fill="none" stroke="currentColor" stroke-width="3.2" stroke-linecap="round" stroke-linejoin="round"/>
  </g>
</svg>
