<svg xmlns="http://www.w3.org/2000/svg" viewBox="0 0 64 64" fill="none" role="img" aria-label="Scaling Human">
  <!-- Side profile + neural graph extending from mind -->
  <g fill="none" stroke="currentColor" stroke-width="2.6" stroke-linecap="round" stroke-linejoin="round">
    <!-- Simple face profile -->
    <path d="M22 12c-8 2-12 10-12 18s4 16 12 18c2 0 3-1 3-3v-4c0-1 1-2 2-2h2c3 0 5-3 5-6 0-2 1-3 3-4 2-1 3-3 3-5 0-6-5-11-11-12h-7z"/>
  </g>
  <!-- Neural burst from head backward / outward -->
  <g stroke="currentColor" stroke-width="2" stroke-linecap="round">
    <line x1="38" y1="28" x2="48" y2="18"/>
    <line x1="38" y1="28" x2="52" y2="28"/>
    <line x1="38" y1="28" x2="48" y2="40"/>
    <line x1="48" y1="18" x2="52" y2="28"/>
    <line x1="52" y1="28" x2="48" y2="40"/>
  </g>
  <g fill="currentColor">
    <circle cx="38" cy="28" r="3"/>
    <circle cx="48" cy="18" r="2.6"/>
    <circle cx="52" cy="28" r="2.6"/>
    <circle cx="48" cy="40" r="2.6"/>
  </g>
</svg>
