<svg xmlns="http://www.w3.org/2000/svg" viewBox="0 0 64 64" fill="none" role="img" aria-label="Scaling Human">
  <!-- Tighter icon: human · >> · chip -->
  <g fill="currentColor">
    <circle cx="13" cy="18" r="5.5"/>
    <path d="M5 50c1.2-9.5 5-13.5 8-13.5s6.8 4 8 13.5H5z"/>
  </g>
  <g fill="none" stroke="currentColor" stroke-width="2.8" stroke-linecap="round" stroke-linejoin="round">
    <path d="M25 25l6.5 7-6.5 7"/>
    <path d="M32.5 25l6.5 7-6.5 7"/>
  </g>
  <!-- IC / chip -->
  <g fill="currentColor">
    <rect x="43" y="20" width="16" height="16" rx="2.5"/>
    <!-- pins -->
    <rect x="40.5" y="24" width="2.5" height="2" rx="0.4"/>
    <rect x="40.5" y="30" width="2.5" height="2" rx="0.4"/>
    <rect x="59" y="24" width="2.5" height="2" rx="0.4"/>
    <rect x="59" y="30" width="2.5" height="2" rx="0.4"/>
    <rect x="47" y="17.5" width="2" height="2.5" rx="0.4"/>
    <rect x="53" y="17.5" width="2" height="2.5" rx="0.4"/>
    <rect x="47" y="36" width="2" height="2.5" rx="0.4"/>
    <rect x="53" y="36" width="2" height="2.5" rx="0.4"/>
  </g>
  <!-- die window -->
  <rect x="47" y="24" width="8" height="8" rx="1.2" fill="none" stroke="currentColor" stroke-width="1.5" opacity="0.35"/>
</svg>
